<svg xmlns="http://www.w3.org/2000/svg" viewBox="0 0 820 220" role="img" aria-label="Religare logo">
  <defs>
    <style>
      .g{fill:#145a2c}
    </style>
  </defs>
  <g class="g">
    <path d="M79 31c-18 0-33 15-33 33 0 3 0 5 1 8H40C22 72 7 87 7 105s15 33 33 33h80v-32H79c-18 0-33-15-33-33s15-33 33-33h41V31H79Z"/>
    <path d="M162 31h-41v32h41c18 0 33 15 33 33s-15 33-33 33h-41v32h80c18 0 33-15 33-33s-15-33-33-33h-7c1-3 1-5 1-8 0-18-15-33-33-33Z"/>
    <path d="M120 98v32H79c-18 0-33 15-33 33s15 33 33 33h41v9c0 4 3 8 8 8s8-4 8-8v-9h41c18 0 33-15 33-33s-15-33-33-33h-41V98h-16Z"/>
    <path d="M248 43h63c39 0 63 18 63 54 0 24-11 40-29 48l34 59h-47l-27-50h-16v50h-41V43Zm41 31v50h20c15 0 24-9 24-25s-9-25-24-25h-20Z"/>
    <path d="M393 43h116v32h-75v28h65v31h-65v39h78v32H393V43Z"/>
    <path d="M524 43h41v161h-41V43Z"/>
    <path d="M584 43h41v129h71v32H584V43Z"/>
    <path d="M705 43h41v161h-41V43Z"/>
    <path d="M764 124c0-48 33-85 82-85 29 0 48 10 63 25l-26 26c-11-9-20-16-37-16-24 0-41 21-41 49s17 50 44 50c10 0 18-2 24-5v-23h-30v-29h68v70c-16 13-39 24-65 24-51 0-82-35-82-86Z"/>
    <path d="M248 181h18c12 0 18 5 18 14 0 6-3 10-8 12l10 17h-13l-8-15h-4v15h-13v-43Zm13 9v11h4c4 0 7-2 7-6s-3-5-7-5h-4Z"/>
    <path d="M295 181h31v10h-19v7h17v9h-17v8h20v10h-32v-44Z"/>
    <path d="M333 181h14l10 29 10-29h13l-17 44h-13l-17-44Z"/>
    <path d="M388 181h13v44h-13v-44Z"/>
    <path d="M412 181h13v33h18v11h-31v-44Z"/>
    <path d="M448 181h13v44h-13v-44Z"/>
    <path d="M470 181h13v33h18v11h-31v-44Z"/>
    <path d="M514 181h13v44h-13v-44Z"/>
    <path d="M539 181h13l18 44h-14l-3-8h-16l-3 8h-13l18-44Zm10 27-4-11-4 11h8Z"/>
    <path d="M576 181h18c12 0 18 5 18 14 0 6-3 10-8 12l10 17h-13l-8-15h-4v15h-13v-43Zm13 9v11h4c4 0 7-2 7-6s-3-5-7-5h-4Z"/>
    <path d="M620 181h31v10h-19v7h17v9h-17v8h20v10h-32v-44Z"/>
    <rect x="640" y="22" width="24" height="8" rx="4" ry="4" transform="rotate(-14 652 26)"/>
  </g>
</svg>
